<svg viewBox="66 138.9 255.59999999999997 101.7" version="1.0" preserveAspectRatio="xMidYMid meet" zoomAndPan="magnify" xmlns:xlink="http://www.w3.org/1999/xlink" xmlns="http://www.w3.org/2000/svg" style="max-height: 500px" width="255.59999999999997" height="101.7"><defs><g/><clipPath id="bcdf0ccd30"><path clip-rule="nonzero" d="M 81.289062 150.640625 L 307.03125 150.640625 L 307.03125 224.09375 L 81.289062 224.09375 Z M 81.289062 150.640625"/></clipPath><clipPath id="126429ad1a"><path clip-rule="nonzero" d="M 142.449219 213.507812 L 246.050781 213.507812 L 246.050781 228.773438 L 142.449219 228.773438 Z M 142.449219 213.507812"/></clipPath></defs><rect fill-opacity="1" height="449.999989" y="-37.499999" fill="#ffffff" width="450" x="-37.5"/><rect fill-opacity="1" height="449.999989" y="-37.499999" fill="#ffffff" width="450" x="-37.5"/><g clip-path="url(#bcdf0ccd30)"><path stroke-miterlimit="4" stroke-opacity="1" stroke-width="12" stroke="#000000" d="M -0.000246216 0.000253456 L 301.213335 0.000253456 L 301.213335 97.937766 L -0.000246216 97.937766 Z M -0.000246216 0.000253456" stroke-linejoin="miter" fill="none" transform="matrix(0.75, 0, 0, 0.75, 81.289247, 150.640435)" stroke-linecap="butt"/></g><g clip-path="url(#126429ad1a)"><path fill-rule="nonzero" fill-opacity="1" d="M 142.449219 213.507812 L 246.066406 213.507812 L 246.066406 228.773438 L 142.449219 228.773438 Z M 142.449219 213.507812" fill="#ffffff"/></g><g fill-opacity="1" fill="#000000"><g transform="translate(91.59065, 200.716761)"><g><path d="M 13.40625 -28.96875 C 16.457031 -28.96875 19.125 -28.363281 21.40625 -27.15625 C 23.695312 -25.945312 25.46875 -24.25 26.71875 -22.0625 C 27.96875 -19.875 28.59375 -17.347656 28.59375 -14.484375 C 28.59375 -11.648438 27.96875 -9.128906 26.71875 -6.921875 C 25.46875 -4.722656 23.691406 -3.019531 21.390625 -1.8125 C 19.097656 -0.601562 16.4375 0 13.40625 0 L 2.5625 0 L 2.5625 -28.96875 Z M 12.953125 -6.109375 C 15.617188 -6.109375 17.695312 -6.835938 19.1875 -8.296875 C 20.675781 -9.753906 21.421875 -11.816406 21.421875 -14.484375 C 21.421875 -17.148438 20.675781 -19.222656 19.1875 -20.703125 C 17.695312 -22.191406 15.617188 -22.9375 12.953125 -22.9375 L 9.609375 -22.9375 L 9.609375 -6.109375 Z M 12.953125 -6.109375"/></g></g></g><g fill-opacity="1" fill="#000000"><g transform="translate(123.114275, 200.716761)"><g><path d="M 9.609375 -23.3125 L 9.609375 -17.453125 L 19.0625 -17.453125 L 19.0625 -12.015625 L 9.609375 -12.015625 L 9.609375 -5.65625 L 20.296875 -5.65625 L 20.296875 0 L 2.5625 0 L 2.5625 -28.96875 L 20.296875 -28.96875 L 20.296875 -23.3125 Z M 9.609375 -23.3125"/></g></g></g><g fill-opacity="1" fill="#000000"><g transform="translate(146.963409, 200.716761)"><g><path d="M 29.75 -28.96875 L 19.484375 0 L 10.640625 0 L 0.375 -28.96875 L 7.875 -28.96875 L 15.0625 -7.09375 L 22.28125 -28.96875 Z M 29.75 -28.96875"/></g></g></g><g fill-opacity="1" fill="#000000"><g transform="translate(178.610822, 200.716761)"><g><path d="M 13.046875 0.28125 C 10.921875 0.28125 9.019531 -0.0625 7.34375 -0.75 C 5.664062 -1.4375 4.320312 -2.453125 3.3125 -3.796875 C 2.3125 -5.140625 1.785156 -6.765625 1.734375 -8.671875 L 9.25 -8.671875 C 9.351562 -7.597656 9.722656 -6.773438 10.359375 -6.203125 C 10.992188 -5.640625 11.816406 -5.359375 12.828125 -5.359375 C 13.878906 -5.359375 14.707031 -5.597656 15.3125 -6.078125 C 15.914062 -6.566406 16.21875 -7.238281 16.21875 -8.09375 C 16.21875 -8.800781 15.972656 -9.390625 15.484375 -9.859375 C 15.003906 -10.328125 14.414062 -10.710938 13.71875 -11.015625 C 13.019531 -11.316406 12.023438 -11.660156 10.734375 -12.046875 C 8.859375 -12.628906 7.328125 -13.207031 6.140625 -13.78125 C 4.960938 -14.363281 3.945312 -15.21875 3.09375 -16.34375 C 2.238281 -17.46875 1.8125 -18.9375 1.8125 -20.75 C 1.8125 -23.445312 2.785156 -25.554688 4.734375 -27.078125 C 6.691406 -28.609375 9.238281 -29.375 12.375 -29.375 C 15.570312 -29.375 18.144531 -28.609375 20.09375 -27.078125 C 22.050781 -25.554688 23.097656 -23.4375 23.234375 -20.71875 L 15.59375 -20.71875 C 15.539062 -21.65625 15.195312 -22.390625 14.5625 -22.921875 C 13.9375 -23.460938 13.125 -23.734375 12.125 -23.734375 C 11.28125 -23.734375 10.59375 -23.503906 10.0625 -23.046875 C 9.539062 -22.585938 9.28125 -21.9375 9.28125 -21.09375 C 9.28125 -20.15625 9.71875 -19.421875 10.59375 -18.890625 C 11.476562 -18.367188 12.859375 -17.804688 14.734375 -17.203125 C 16.597656 -16.578125 18.113281 -15.972656 19.28125 -15.390625 C 20.457031 -14.816406 21.472656 -13.976562 22.328125 -12.875 C 23.179688 -11.769531 23.609375 -10.351562 23.609375 -8.625 C 23.609375 -6.976562 23.1875 -5.476562 22.34375 -4.125 C 21.507812 -2.78125 20.289062 -1.707031 18.6875 -0.90625 C 17.09375 -0.113281 15.210938 0.28125 13.046875 0.28125 Z M 13.046875 0.28125"/></g></g></g><g fill-opacity="1" fill="#000000"><g transform="translate(205.513247, 200.716761)"><g><path d="M 27.640625 -28.96875 L 27.640625 0 L 20.59375 0 L 20.59375 -11.921875 L 9.609375 -11.921875 L 9.609375 0 L 2.5625 0 L 2.5625 -28.96875 L 9.609375 -28.96875 L 9.609375 -17.625 L 20.59375 -17.625 L 20.59375 -28.96875 Z M 27.640625 -28.96875"/></g></g></g><g fill-opacity="1" fill="#000000"><g transform="translate(237.201923, 200.716761)"><g><path d="M 16.265625 0.28125 C 13.535156 0.28125 11.035156 -0.347656 8.765625 -1.609375 C 6.492188 -2.867188 4.691406 -4.632812 3.359375 -6.90625 C 2.023438 -9.175781 1.359375 -11.726562 1.359375 -14.5625 C 1.359375 -17.394531 2.023438 -19.9375 3.359375 -22.1875 C 4.691406 -24.445312 6.492188 -26.207031 8.765625 -27.46875 C 11.035156 -28.738281 13.535156 -29.375 16.265625 -29.375 C 18.984375 -29.375 21.476562 -28.738281 23.75 -27.46875 C 26.019531 -26.207031 27.804688 -24.445312 29.109375 -22.1875 C 30.421875 -19.9375 31.078125 -17.394531 31.078125 -14.5625 C 31.078125 -11.726562 30.414062 -9.175781 29.09375 -6.90625 C 27.769531 -4.632812 25.976562 -2.867188 23.71875 -1.609375 C 21.46875 -0.347656 18.984375 0.28125 16.265625 0.28125 Z M 16.265625 -6.15625 C 18.566406 -6.15625 20.410156 -6.921875 21.796875 -8.453125 C 23.191406 -9.992188 23.890625 -12.03125 23.890625 -14.5625 C 23.890625 -17.125 23.191406 -19.164062 21.796875 -20.6875 C 20.410156 -22.21875 18.566406 -22.984375 16.265625 -22.984375 C 13.921875 -22.984375 12.050781 -22.226562 10.65625 -20.71875 C 9.269531 -19.207031 8.578125 -17.15625 8.578125 -14.5625 C 8.578125 -12.007812 9.269531 -9.96875 10.65625 -8.4375 C 12.050781 -6.914062 13.921875 -6.15625 16.265625 -6.15625 Z M 16.265625 -6.15625"/></g></g></g><g fill-opacity="1" fill="#000000"><g transform="translate(271.159928, 200.716761)"><g><path d="M 24.640625 -19.640625 C 24.640625 -17.960938 24.253906 -16.425781 23.484375 -15.03125 C 22.710938 -13.644531 21.523438 -12.523438 19.921875 -11.671875 C 18.328125 -10.828125 16.347656 -10.40625 13.984375 -10.40625 L 9.609375 -10.40625 L 9.609375 0 L 2.5625 0 L 2.5625 -28.96875 L 13.984375 -28.96875 C 16.296875 -28.96875 18.25 -28.566406 19.84375 -27.765625 C 21.445312 -26.972656 22.644531 -25.875 23.4375 -24.46875 C 24.238281 -23.0625 24.640625 -21.453125 24.640625 -19.640625 Z M 13.453125 -16.015625 C 14.796875 -16.015625 15.796875 -16.328125 16.453125 -16.953125 C 17.117188 -17.585938 17.453125 -18.484375 17.453125 -19.640625 C 17.453125 -20.796875 17.117188 -21.691406 16.453125 -22.328125 C 15.796875 -22.960938 14.796875 -23.28125 13.453125 -23.28125 L 9.609375 -23.28125 L 9.609375 -16.015625 Z M 13.453125 -16.015625"/></g></g></g><g fill-opacity="1" fill="#000000"><g transform="translate(152.256031, 226.362759)"><g><path d="M 2.171875 -9.328125 L 2.171875 -5.53125 L 6.03125 -5.53125 L 6.03125 -4.6875 L 2.171875 -4.6875 L 2.171875 -0.84375 L 6.46875 -0.84375 L 6.46875 0 L 1.15625 0 L 1.15625 -10.171875 L 6.46875 -10.171875 L 6.46875 -9.328125 Z M 2.171875 -9.328125"/></g></g></g><g fill-opacity="1" fill="#000000"><g transform="translate(159.564765, 226.362759)"><g><path d="M 2.171875 -0.828125 L 5.828125 -0.828125 L 5.828125 0 L 1.15625 0 L 1.15625 -10.15625 L 2.171875 -10.15625 Z M 2.171875 -0.828125"/></g></g></g><g fill-opacity="1" fill="#000000"><g transform="translate(165.682013, 226.362759)"><g><path d="M 2.171875 -9.328125 L 2.171875 -5.53125 L 6.03125 -5.53125 L 6.03125 -4.6875 L 2.171875 -4.6875 L 2.171875 -0.84375 L 6.46875 -0.84375 L 6.46875 0 L 1.15625 0 L 1.15625 -10.171875 L 6.46875 -10.171875 L 6.46875 -9.328125 Z M 2.171875 -9.328125"/></g></g></g><g fill-opacity="1" fill="#000000"><g transform="translate(172.990747, 226.362759)"><g><path d="M 0.703125 -5.078125 C 0.703125 -6.078125 0.914062 -6.972656 1.34375 -7.765625 C 1.78125 -8.554688 2.375 -9.171875 3.125 -9.609375 C 3.882812 -10.054688 4.734375 -10.28125 5.671875 -10.28125 C 6.804688 -10.28125 7.773438 -10.007812 8.578125 -9.46875 C 9.390625 -8.925781 9.976562 -8.164062 10.34375 -7.1875 L 9.15625 -7.1875 C 8.863281 -7.875 8.421875 -8.410156 7.828125 -8.796875 C 7.234375 -9.191406 6.515625 -9.390625 5.671875 -9.390625 C 4.921875 -9.390625 4.25 -9.210938 3.65625 -8.859375 C 3.0625 -8.515625 2.59375 -8.015625 2.25 -7.359375 C 1.914062 -6.703125 1.75 -5.941406 1.75 -5.078125 C 1.75 -4.222656 1.914062 -3.46875 2.25 -2.8125 C 2.59375 -2.164062 3.0625 -1.664062 3.65625 -1.3125 C 4.25 -0.96875 4.921875 -0.796875 5.671875 -0.796875 C 6.515625 -0.796875 7.234375 -0.988281 7.828125 -1.375 C 8.421875 -1.757812 8.863281 -2.289062 9.15625 -2.96875 L 10.34375 -2.96875 C 9.976562 -2 9.390625 -1.242188 8.578125 -0.703125 C 7.765625 -0.171875 6.796875 0.09375 5.671875 0.09375 C 4.734375 0.09375 3.882812 -0.125 3.125 -0.5625 C 2.375 -1.007812 1.78125 -1.625 1.34375 -2.40625 C 0.914062 -3.195312 0.703125 -4.085938 0.703125 -5.078125 Z M 0.703125 -5.078125"/></g></g></g><g fill-opacity="1" fill="#000000"><g transform="translate(184.193596, 226.362759)"><g><path d="M 7.109375 -10.15625 L 7.109375 -9.3125 L 4.28125 -9.3125 L 4.28125 0 L 3.265625 0 L 3.265625 -9.3125 L 0.4375 -9.3125 L 0.4375 -10.15625 Z M 7.109375 -10.15625"/></g></g></g><g fill-opacity="1" fill="#000000"><g transform="translate(191.749345, 226.362759)"><g><path d="M 6.5625 0 L 4.046875 -4.25 L 2.171875 -4.25 L 2.171875 0 L 1.15625 0 L 1.15625 -10.15625 L 4.21875 -10.15625 C 5.351562 -10.15625 6.210938 -9.882812 6.796875 -9.34375 C 7.378906 -8.800781 7.671875 -8.085938 7.671875 -7.203125 C 7.671875 -6.472656 7.457031 -5.847656 7.03125 -5.328125 C 6.613281 -4.804688 5.992188 -4.46875 5.171875 -4.3125 L 7.78125 0 Z M 2.171875 -5.078125 L 4.234375 -5.078125 C 5.023438 -5.078125 5.617188 -5.269531 6.015625 -5.65625 C 6.421875 -6.039062 6.625 -6.554688 6.625 -7.203125 C 6.625 -7.867188 6.429688 -8.382812 6.046875 -8.75 C 5.660156 -9.113281 5.050781 -9.296875 4.21875 -9.296875 L 2.171875 -9.296875 Z M 2.171875 -5.078125"/></g></g></g><g fill-opacity="1" fill="#000000"><g transform="translate(200.27862, 226.362759)"><g><path d="M 5.71875 0.109375 C 4.78125 0.109375 3.925781 -0.109375 3.15625 -0.546875 C 2.394531 -0.992188 1.796875 -1.613281 1.359375 -2.40625 C 0.921875 -3.195312 0.703125 -4.085938 0.703125 -5.078125 C 0.703125 -6.078125 0.921875 -6.972656 1.359375 -7.765625 C 1.796875 -8.554688 2.394531 -9.171875 3.15625 -9.609375 C 3.925781 -10.054688 4.78125 -10.28125 5.71875 -10.28125 C 6.675781 -10.28125 7.535156 -10.054688 8.296875 -9.609375 C 9.054688 -9.171875 9.65625 -8.554688 10.09375 -7.765625 C 10.53125 -6.972656 10.75 -6.078125 10.75 -5.078125 C 10.75 -4.085938 10.53125 -3.195312 10.09375 -2.40625 C 9.65625 -1.613281 9.054688 -0.992188 8.296875 -0.546875 C 7.535156 -0.109375 6.675781 0.109375 5.71875 0.109375 Z M 5.71875 -0.78125 C 6.476562 -0.78125 7.15625 -0.953125 7.75 -1.296875 C 8.351562 -1.648438 8.828125 -2.15625 9.171875 -2.8125 C 9.523438 -3.46875 9.703125 -4.222656 9.703125 -5.078125 C 9.703125 -5.941406 9.523438 -6.695312 9.171875 -7.34375 C 8.828125 -8 8.351562 -8.5 7.75 -8.84375 C 7.15625 -9.195312 6.476562 -9.375 5.71875 -9.375 C 4.96875 -9.375 4.289062 -9.195312 3.6875 -8.84375 C 3.09375 -8.5 2.617188 -8 2.265625 -7.34375 C 1.921875 -6.695312 1.75 -5.941406 1.75 -5.078125 C 1.75 -4.222656 1.921875 -3.46875 2.265625 -2.8125 C 2.617188 -2.15625 3.09375 -1.648438 3.6875 -1.296875 C 4.289062 -0.953125 4.96875 -0.78125 5.71875 -0.78125 Z M 5.71875 -0.78125"/></g></g></g><g fill-opacity="1" fill="#000000"><g transform="translate(211.728484, 226.362759)"><g><path d="M 8.828125 0 L 7.796875 0 L 2.171875 -8.546875 L 2.171875 0 L 1.15625 0 L 1.15625 -10.15625 L 2.171875 -10.15625 L 7.796875 -1.625 L 7.796875 -10.15625 L 8.828125 -10.15625 Z M 8.828125 0"/></g></g></g><g fill-opacity="1" fill="#000000"><g transform="translate(221.69626, 226.362759)"><g><path d="M 2.171875 -10.15625 L 2.171875 0 L 1.15625 0 L 1.15625 -10.15625 Z M 2.171875 -10.15625"/></g></g></g><g fill-opacity="1" fill="#000000"><g transform="translate(225.023693, 226.362759)"><g><path d="M 0.703125 -5.078125 C 0.703125 -6.078125 0.914062 -6.972656 1.34375 -7.765625 C 1.78125 -8.554688 2.375 -9.171875 3.125 -9.609375 C 3.882812 -10.054688 4.734375 -10.28125 5.671875 -10.28125 C 6.804688 -10.28125 7.773438 -10.007812 8.578125 -9.46875 C 9.390625 -8.925781 9.976562 -8.164062 10.34375 -7.1875 L 9.15625 -7.1875 C 8.863281 -7.875 8.421875 -8.410156 7.828125 -8.796875 C 7.234375 -9.191406 6.515625 -9.390625 5.671875 -9.390625 C 4.921875 -9.390625 4.25 -9.210938 3.65625 -8.859375 C 3.0625 -8.515625 2.59375 -8.015625 2.25 -7.359375 C 1.914062 -6.703125 1.75 -5.941406 1.75 -5.078125 C 1.75 -4.222656 1.914062 -3.46875 2.25 -2.8125 C 2.59375 -2.164062 3.0625 -1.664062 3.65625 -1.3125 C 4.25 -0.96875 4.921875 -0.796875 5.671875 -0.796875 C 6.515625 -0.796875 7.234375 -0.988281 7.828125 -1.375 C 8.421875 -1.757812 8.863281 -2.289062 9.15625 -2.96875 L 10.34375 -2.96875 C 9.976562 -2 9.390625 -1.242188 8.578125 -0.703125 C 7.765625 -0.171875 6.796875 0.09375 5.671875 0.09375 C 4.734375 0.09375 3.882812 -0.125 3.125 -0.5625 C 2.375 -1.007812 1.78125 -1.625 1.34375 -2.40625 C 0.914062 -3.195312 0.703125 -4.085938 0.703125 -5.078125 Z M 0.703125 -5.078125"/></g></g></g></svg>